<?xml version="1.0" encoding="UTF-8"?>
<svg id="Layer_1" xmlns="http://www.w3.org/2000/svg" version="1.1" viewBox="0 0 292 252">
  <!-- Generator: Adobe Illustrator 29.1.0, SVG Export Plug-In . SVG Version: 2.1.0 Build 142)  -->
  <defs>
    <style>
      .st0 {
        fill: #b23a48;
      }

      .st1 {
        fill: #fed0bb;
      }

      .st2 {
        fill: #fcb9b2;
      }

      .st3 {
        fill: #8c2f39;
      }

      .st4 {
        display: none;
      }
    </style>
  </defs>
  <g>
    <path class="st1" d="M251.71,145.64l-106.07,106.07L21.96,128.03c-29.29-29.29-29.29-76.78,0-106.07C36.6,7.32,55.8-.01,75-.01s38.38,7.33,53.03,21.97l17.62,17.62,106.06,106.06Z"/>
    <path class="st1" d="M291.58,74.71c0,19.19-7.32,38.39-21.97,53.03l-17.9,17.9-106.07,106.07-106.06-106.06,106.07-106.07,17.89-17.9c29.29-29.29,76.78-29.29,106.07,0,14.65,14.64,21.97,33.83,21.97,53.03Z"/>
  </g>
  <g>
    <path class="st2" d="M251.74,145.72l-106.07,106.07L21.99,128.11c-29.29-29.29-29.29-76.78,0-106.07C36.63,7.4,55.83.07,75.03.07s38.38,7.33,53.03,21.97l17.62,17.62,106.06,106.06Z"/>
    <path class="st2" d="M291.61,74.79c0,19.19-7.32,38.39-21.97,53.03l-17.9,17.9-106.07,106.07-106.06-106.06,106.07-106.07,17.89-17.9c29.29-29.29,76.78-29.29,106.07,0,14.65,14.64,21.97,33.83,21.97,53.03Z"/>
  </g>
  <g class="st4">
    <path class="st0" d="M251.74,145.72l-106.07,106.07L21.99,128.11c-29.29-29.29-29.29-76.78,0-106.07C36.63,7.4,55.83.07,75.03.07s38.38,7.33,53.03,21.97l17.62,17.62,106.06,106.06Z"/>
    <path class="st0" d="M291.61,74.79c0,19.19-7.32,38.39-21.97,53.03l-17.9,17.9-106.07,106.07-106.06-106.06,106.07-106.07,17.89-17.9c29.29-29.29,76.78-29.29,106.07,0,14.65,14.64,21.97,33.83,21.97,53.03Z"/>
  </g>
  <g class="st4">
    <path class="st3" d="M251.74,145.72l-106.07,106.07L21.99,128.11c-29.29-29.29-29.29-76.78,0-106.07C36.63,7.4,55.83.07,75.03.07s38.38,7.33,53.03,21.97l17.62,17.62,106.06,106.06Z"/>
    <path class="st3" d="M291.61,74.79c0,19.19-7.32,38.39-21.97,53.03l-17.9,17.9-106.07,106.07-106.06-106.06,106.07-106.07,17.89-17.9c29.29-29.29,76.78-29.29,106.07,0,14.65,14.64,21.97,33.83,21.97,53.03Z"/>
  </g>
</svg>